<svg width="26" height="26" viewBox="0 0 26 26" fill="none" xmlns="http://www.w3.org/2000/svg">
<mask id="path-1-inside-1_20_4897" fill="white">
<path fill-rule="evenodd" clip-rule="evenodd" d="M19.7479 25.2632C20.0485 24.067 20.2105 22.794 20.2105 21.4737C20.2105 14.4975 15.6862 8.84216 10.1053 8.84216C4.52428 8.84216 0 14.4975 0 21.4737C0 22.794 0.162042 24.067 0.462622 25.2632H19.7479Z"/>
</mask>
<path fill-rule="evenodd" clip-rule="evenodd" d="M19.7479 25.2632C20.0485 24.067 20.2105 22.794 20.2105 21.4737C20.2105 14.4975 15.6862 8.84216 10.1053 8.84216C4.52428 8.84216 0 14.4975 0 21.4737C0 22.794 0.162042 24.067 0.462622 25.2632H19.7479Z" fill="#444444"/>
<path d="M19.7479 25.2632V28.2632H22.0874L22.6575 25.9943L19.7479 25.2632ZM0.462622 25.2632L-2.44694 25.9943L-1.87683 28.2632H0.462622V25.2632ZM17.2105 21.4737C17.2105 22.5488 17.0786 23.5762 16.8383 24.5321L22.6575 25.9943C23.0184 24.5578 23.2105 23.0392 23.2105 21.4737H17.2105ZM10.1053 11.8422C13.4393 11.8422 17.2105 15.4951 17.2105 21.4737H23.2105C23.2105 13.5 17.9332 5.84216 10.1053 5.84216V11.8422ZM3 21.4737C3 15.4951 6.77123 11.8422 10.1053 11.8422V5.84216C2.27733 5.84216 -3 13.5 -3 21.4737H3ZM3.37218 24.5321C3.13197 23.5762 3 22.5488 3 21.4737H-3C-3 23.0392 -2.80789 24.5578 -2.44694 25.9943L3.37218 24.5321ZM0.462622 28.2632H19.7479V22.2632H0.462622V28.2632Z" fill="#444444" mask="url(#path-1-inside-1_20_4897)"/>
<circle cx="10.1052" cy="6.31579" r="4.81579" fill="#444444" stroke="#444444" stroke-width="3"/>
<path d="M20.2105 3.78943L20.2105 11.3684" stroke="#444444" stroke-width="3" stroke-linecap="round"/>
<path d="M24 7.57898L16.4211 7.57898" stroke="#444444" stroke-width="3" stroke-linecap="round"/>
</svg>
