<svg width="23" height="23" viewBox="0 0 23 23" fill="none" xmlns="http://www.w3.org/2000/svg">
<mask id="path-1-inside-1_15_1878" fill="white">
<path fill-rule="evenodd" clip-rule="evenodd" d="M14.3 1H4C1.79086 1 0 2.79086 0 5V19C0 21.2091 1.79086 23 4 23H18C20.2091 23 22 21.2091 22 19V8.69998H15.3C14.7477 8.69998 14.3 8.25226 14.3 7.69998V1Z"/>
</mask>
<path d="M14.3 1H16.3V-1H14.3V1ZM22 8.69998H24V6.69998H22V8.69998ZM4 3H14.3V-1H4V3ZM2 5C2 3.89543 2.89543 3 4 3V-1C0.686292 -1 -2 1.68629 -2 5H2ZM2 19V5H-2V19H2ZM4 21C2.89543 21 2 20.1046 2 19H-2C-2 22.3137 0.686292 25 4 25V21ZM18 21H4V25H18V21ZM20 19C20 20.1046 19.1046 21 18 21V25C21.3137 25 24 22.3137 24 19H20ZM20 8.69998V19H24V8.69998H20ZM22 6.69998H15.3V10.7H22V6.69998ZM15.3 6.69998C15.8523 6.69998 16.3 7.14769 16.3 7.69998H12.3C12.3 9.35683 13.6431 10.7 15.3 10.7V6.69998ZM16.3 7.69998V1H12.3V7.69998H16.3Z" fill="black" mask="url(#path-1-inside-1_15_1878)"/>
<path d="M18.7 1L18.7 7.6" stroke="black" stroke-width="2" stroke-linecap="round"/>
<path d="M22 4.29993L15.4 4.29993" stroke="black" stroke-width="2" stroke-linecap="round"/>
<path d="M1.10001 19.6999L7.70001 9.79993L17.05 21.8999" stroke="black" stroke-width="2" stroke-linecap="round"/>
<path d="M11.55 14.75L14.0567 12L20.9 19.7" stroke="black" stroke-width="2" stroke-linecap="round"/>
</svg>
