<svg width="48" height="48" viewBox="0 0 48 48" fill="none" xmlns="http://www.w3.org/2000/svg">
<mask id="path-1-inside-1_15_1936" fill="white">
<path fill-rule="evenodd" clip-rule="evenodd" d="M39.1241 31.0876C40.2409 28.9833 40.8661 26.6273 40.8661 24.1398C40.8661 15.226 32.8372 8 22.9331 8C13.0289 8 5 15.226 5 24.1398C5 33.0535 13.0289 40.2795 22.9331 40.2795C26.2812 40.2795 29.415 39.4537 32.0968 38.0161L40.8536 39.8925C41.6302 40.059 42.2816 39.2971 41.9964 38.5558L39.1241 31.0876Z"/>
</mask>
<path d="M39.1241 31.0876L36.9158 29.9156L36.3818 30.9218L36.7907 31.985L39.1241 31.0876ZM32.0968 38.0161L32.6206 35.5716L31.7239 35.3794L30.9157 35.8127L32.0968 38.0161ZM40.8536 39.8925L41.3774 37.448L41.3774 37.448L40.8536 39.8925ZM41.9964 38.5558L44.3298 37.6583L44.3298 37.6583L41.9964 38.5558ZM38.3661 24.1398C38.3661 26.201 37.8495 28.1564 36.9158 29.9156L41.3323 32.2596C42.6322 29.8103 43.3661 27.0535 43.3661 24.1398H38.3661ZM22.9331 10.5C31.7108 10.5 38.3661 16.848 38.3661 24.1398H43.3661C43.3661 13.6041 33.9636 5.5 22.9331 5.5V10.5ZM7.5 24.1398C7.5 16.848 14.1553 10.5 22.9331 10.5V5.5C11.9025 5.5 2.5 13.6041 2.5 24.1398H7.5ZM22.9331 37.7795C14.1553 37.7795 7.5 31.4315 7.5 24.1398H2.5C2.5 34.6755 11.9025 42.7795 22.9331 42.7795V37.7795ZM30.9157 35.8127C28.5969 37.0557 25.8688 37.7795 22.9331 37.7795V42.7795C26.6936 42.7795 30.2331 41.8517 33.278 40.2195L30.9157 35.8127ZM41.3774 37.448L32.6206 35.5716L31.573 40.4606L40.3297 42.337L41.3774 37.448ZM39.6631 39.4532C39.2354 38.3412 40.2124 37.1984 41.3774 37.448L40.3297 42.337C43.0481 42.9195 45.3278 40.253 44.3298 37.6583L39.6631 39.4532ZM36.7907 31.985L39.6631 39.4532L44.3298 37.6583L41.4574 30.1901L36.7907 31.985Z" fill="black" mask="url(#path-1-inside-1_15_1936)"/>
<circle cx="15.7599" cy="24.1397" r="1.79331" fill="black"/>
<circle cx="22.9331" cy="24.1397" r="1.79331" fill="black"/>
<circle cx="30.1063" cy="24.1397" r="1.79331" fill="black"/>
</svg>
