<svg width="30" height="26" viewBox="0 0 30 26" fill="none" xmlns="http://www.w3.org/2000/svg">
<mask id="path-1-inside-1_20_4879" fill="white">
<path fill-rule="evenodd" clip-rule="evenodd" d="M27.5682 18.5962C28.4704 16.9013 28.9755 15.0036 28.9755 13C28.9755 5.8203 22.4891 0 14.4878 0C6.4864 0 0 5.8203 0 13C0 20.1797 6.4864 26 14.4878 26C17.1927 26 19.7244 25.3349 21.891 24.1769L28.6174 25.614C29.3943 25.7799 30.0452 25.0173 29.7593 24.2761L27.5682 18.5962Z"/>
</mask>
<path fill-rule="evenodd" clip-rule="evenodd" d="M27.5682 18.5962C28.4704 16.9013 28.9755 15.0036 28.9755 13C28.9755 5.8203 22.4891 0 14.4878 0C6.4864 0 0 5.8203 0 13C0 20.1797 6.4864 26 14.4878 26C17.1927 26 19.7244 25.3349 21.891 24.1769L28.6174 25.614C29.3943 25.7799 30.0452 25.0173 29.7593 24.2761L27.5682 18.5962Z" fill="#444444"/>
<path d="M27.5682 18.5962L24.92 17.1866L24.2758 18.3968L24.7692 19.676L27.5682 18.5962ZM21.891 24.1769L22.5178 21.2431L21.4447 21.0138L20.4769 21.5311L21.891 24.1769ZM28.6174 25.614L27.9906 28.5478L27.9906 28.5478L28.6174 25.614ZM29.7593 24.2761L26.9603 25.3559L26.9603 25.3559L29.7593 24.2761ZM25.9755 13C25.9755 14.4904 25.6016 15.9062 24.92 17.1866L30.2164 20.0059C31.3392 17.8965 31.9755 15.5168 31.9755 13H25.9755ZM14.4878 3C21.1463 3 25.9755 7.77461 25.9755 13H31.9755C31.9755 3.86598 23.832 -3 14.4878 -3V3ZM3 13C3 7.77461 7.82925 3 14.4878 3V-3C5.14354 -3 -3 3.86598 -3 13H3ZM14.4878 23C7.82925 23 3 18.2254 3 13H-3C-3 22.134 5.14354 29 14.4878 29V23ZM20.4769 21.5311C18.7455 22.4565 16.6994 23 14.4878 23V29C17.6859 29 20.7034 28.2132 23.3051 26.8227L20.4769 21.5311ZM29.2442 22.6802L22.5178 21.2431L21.2642 27.1107L27.9906 28.5478L29.2442 22.6802ZM26.9603 25.3559C26.3884 23.8734 27.6903 22.3482 29.2442 22.6802L27.9906 28.5478C31.0983 29.2117 33.702 26.1613 32.5582 23.1964L26.9603 25.3559ZM24.7692 19.676L26.9603 25.3559L32.5583 23.1964L30.3671 17.5165L24.7692 19.676Z" fill="#444444" mask="url(#path-1-inside-1_20_4879)"/>
</svg>
