<svg width="33" height="32" viewBox="0 0 33 32" fill="none" xmlns="http://www.w3.org/2000/svg">
<path d="M17.2972 11.5856L17.8419 10.747L16.9531 10.1698L16.4284 11.0905L17.2972 11.5856ZM5.23107 11.9926L6.06451 11.44L5.47907 10.5571L4.63133 11.1924L5.23107 11.9926ZM16.4284 11.0905C15.38 12.93 13.4032 14.1667 11.1389 14.1667V16.1667C14.1507 16.1667 16.7764 14.5191 18.166 12.0808L16.4284 11.0905ZM11.1389 14.1667C9.0211 14.1667 7.15543 13.0854 6.06451 11.44L4.39763 12.5452C5.84329 14.7256 8.32257 16.1667 11.1389 16.1667V14.1667ZM2 20.4445C2 17.3153 3.50305 14.5375 5.83081 12.7928L4.63133 11.1924C1.82136 13.2985 0 16.6589 0 20.4445H2ZM11.5556 30C6.27817 30 2 25.7219 2 20.4445H0C0 26.8264 5.1736 32 11.5556 32V30ZM21.1111 20.4445C21.1111 25.7219 16.8329 30 11.5556 30V32C17.9375 32 23.1111 26.8264 23.1111 20.4445H21.1111ZM16.7526 12.4243C19.3781 14.1295 21.1111 17.0849 21.1111 20.4445H23.1111C23.1111 16.3794 21.0113 12.8054 17.8419 10.747L16.7526 12.4243Z" fill="black"/>
<circle cx="11.1389" cy="8.08333" r="7.08333" stroke="black" stroke-width="2"/>
<circle cx="24.6111" cy="10.8112" r="5.27778" stroke="black" stroke-width="2"/>
<mask id="path-4-inside-1_36_6058" fill="white">
<path fill-rule="evenodd" clip-rule="evenodd" d="M20.1843 12.2082C19.7114 12.5711 19.2811 12.9865 18.902 13.4459C20.5531 15.3087 21.5556 17.7596 21.5556 20.4446C21.5556 22.0486 21.1978 23.5691 20.5576 24.9306C21.8116 25.781 23.3249 26.2779 24.9543 26.2779C29.2859 26.2779 32.7974 22.7664 32.7974 18.4347C32.7974 15.6857 31.3831 13.2669 29.2423 11.8665C28.3458 13.5022 26.608 14.6111 24.6111 14.6111C22.7567 14.6111 21.1257 13.6547 20.1843 12.2082Z"/>
</mask>
<path d="M20.1843 12.2082L21.8606 11.1174L20.6817 9.30582L18.9669 10.6215L20.1843 12.2082ZM18.902 13.4459L17.3594 12.1729L16.2706 13.4923L17.4053 14.7725L18.902 13.4459ZM20.5576 24.9306L18.7477 24.0796L18.0204 25.6265L19.4351 26.5859L20.5576 24.9306ZM29.2423 11.8665L30.3372 10.1928L28.5278 9.00915L27.4885 10.9052L29.2423 11.8665ZM18.9669 10.6215C18.374 11.0763 17.8346 11.5971 17.3594 12.1729L20.4446 14.7189C20.7275 14.376 21.0489 14.0658 21.4018 13.795L18.9669 10.6215ZM17.4053 14.7725C18.7446 16.2836 19.5556 18.267 19.5556 20.4446H23.5556C23.5556 17.2522 22.3615 14.3338 20.3987 12.1193L17.4053 14.7725ZM19.5556 20.4446C19.5556 21.7483 19.2653 22.9788 18.7477 24.0796L22.3675 25.7816C23.1302 24.1594 23.5556 22.3489 23.5556 20.4446H19.5556ZM19.4351 26.5859C21.0099 27.6538 22.9122 28.2779 24.9543 28.2779V24.2779C23.7376 24.2779 22.6134 23.9082 21.6801 23.2753L19.4351 26.5859ZM24.9543 28.2779C30.3905 28.2779 34.7974 23.8709 34.7974 18.4347H30.7974C30.7974 21.6618 28.1813 24.2779 24.9543 24.2779V28.2779ZM34.7974 18.4347C34.7974 14.9826 33.0187 11.947 30.3372 10.1928L28.1474 13.5402C29.7474 14.5869 30.7974 16.3887 30.7974 18.4347H34.7974ZM27.4885 10.9052C26.9289 11.9261 25.8486 12.6111 24.6111 12.6111V16.6111C27.3673 16.6111 29.7627 15.0782 30.9961 12.8279L27.4885 10.9052ZM24.6111 12.6111C23.4615 12.6111 22.4486 12.0208 21.8606 11.1174L18.508 13.2991C19.8027 15.2886 22.0519 16.6111 24.6111 16.6111V12.6111Z" fill="black" mask="url(#path-4-inside-1_36_6058)"/>
</svg>
