<svg width="41" height="38" viewBox="0 0 41 38" fill="none" xmlns="http://www.w3.org/2000/svg">
<path fill-rule="evenodd" clip-rule="evenodd" d="M34.897 16.7503L21.7004 33.3437C20.8997 34.3506 19.3705 34.3506 18.5697 33.3437L5.37329 16.7504C4.88588 16.2687 4.46165 15.7368 4.112 15.1645L3.86712 14.8566C3.59542 14.5149 3.45798 14.1309 3.43293 13.7497C3.15165 12.9657 3 12.1313 3 11.2659C3 6.70075 7.2194 3 12.4243 3C15.6117 3 18.4295 4.38784 20.1351 6.51213C21.8406 4.38784 24.6585 3 27.8459 3C33.0507 3 37.2701 6.70075 37.2701 11.2659C37.2701 12.1313 37.1185 12.9657 36.8372 13.7497C36.8122 14.1308 36.6748 14.5149 36.403 14.8566L36.158 15.1647C35.8084 15.7368 35.3843 16.2687 34.897 16.7503Z" fill="#B00C0C"/>
<path d="M21.7004 33.3437L19.3524 31.4764L19.3524 31.4764L21.7004 33.3437ZM34.897 16.7503L32.7882 14.6165L32.6607 14.7426L32.549 14.8829L34.897 16.7503ZM18.5697 33.3437L20.9177 31.4764L20.9177 31.4764L18.5697 33.3437ZM5.37329 16.7504L7.72128 14.8831L7.60963 14.7427L7.48204 14.6166L5.37329 16.7504ZM4.112 15.1645L6.67201 13.6004L6.57537 13.4422L6.46 13.2971L4.112 15.1645ZM3.86712 14.8566L1.51913 16.7239L1.51913 16.7239L3.86712 14.8566ZM3.43293 13.7497L6.42647 13.553L6.39885 13.1329L6.2567 12.7367L3.43293 13.7497ZM20.1351 6.51213L17.7958 8.39033L20.1351 11.3039L22.4744 8.39033L20.1351 6.51213ZM36.8372 13.7497L34.0135 12.7366L33.8713 13.133L33.8437 13.5531L36.8372 13.7497ZM36.403 14.8566L34.0551 12.9892L34.0551 12.9892L36.403 14.8566ZM36.158 15.1647L33.81 13.2974L33.6947 13.4424L33.5981 13.6005L36.158 15.1647ZM24.0484 35.2111L37.245 18.6176L32.549 14.8829L19.3524 31.4764L24.0484 35.2111ZM16.2217 35.2111C18.2235 37.7281 22.0466 37.7281 24.0484 35.2111L19.3524 31.4764C19.7528 30.973 20.5174 30.973 20.9177 31.4764L16.2217 35.2111ZM3.02529 18.6178L16.2217 35.2111L20.9177 31.4764L7.72128 14.8831L3.02529 18.6178ZM7.48204 14.6166C7.16088 14.2992 6.89006 13.9573 6.67201 13.6004L1.552 16.7286C2.03324 17.5162 2.61088 18.2383 3.26454 18.8842L7.48204 14.6166ZM1.51913 16.7239L1.76401 17.0318L6.46 13.2971L6.21512 12.9892L1.51913 16.7239ZM0.439386 13.9465C0.50379 14.9263 0.860388 15.8956 1.51913 16.7239L6.21512 12.9892C6.33045 13.1343 6.41217 13.3355 6.42647 13.553L0.439386 13.9465ZM6.2567 12.7367C6.08907 12.2694 6 11.7773 6 11.2659H0C0 12.4853 0.214238 13.662 0.60915 14.7628L6.2567 12.7367ZM6 11.2659C6 8.71516 8.49452 6 12.4243 6V0C5.94427 0 0 4.68635 0 11.2659H6ZM12.4243 6C14.7541 6 16.6913 7.01477 17.7958 8.39033L22.4744 4.63393C20.1677 1.76091 16.4693 0 12.4243 0V6ZM22.4744 8.39033C23.5788 7.01477 25.516 6 27.8459 6V0C23.8009 0 20.1025 1.76091 17.7958 4.63393L22.4744 8.39033ZM27.8459 6C31.7756 6 34.2701 8.71516 34.2701 11.2659H40.2701C40.2701 4.68635 34.3259 0 27.8459 0V6ZM34.2701 11.2659C34.2701 11.7773 34.1811 12.2694 34.0135 12.7366L39.661 14.7627C40.0559 13.662 40.2701 12.4853 40.2701 11.2659H34.2701ZM38.751 16.7239C39.4098 15.8955 39.7664 14.9261 39.8308 13.9463L33.8437 13.5531C33.858 13.3356 33.9397 13.1343 34.0551 12.9892L38.751 16.7239ZM38.506 17.032L38.751 16.7239L34.0551 12.9892L33.81 13.2974L38.506 17.032ZM33.5981 13.6005C33.38 13.9573 33.1093 14.2992 32.7882 14.6165L37.0058 18.884C37.6593 18.2382 38.2368 17.5163 38.718 16.7289L33.5981 13.6005Z" fill="#B00C0C"/>
</svg>
