<svg width="37" height="41" viewBox="0 0 37 41" fill="none" xmlns="http://www.w3.org/2000/svg">
<path fill-rule="evenodd" clip-rule="evenodd" d="M18.2493 2.53262C2.6018 10.7421 2.24278 27.6139 2.55909 32.9801C4.33364 32.3741 7.51058 31.397 11.2235 30.7517L11.2248 30.7426L12.1331 30.602C13.8838 30.3311 15.7422 30.1417 17.6205 30.1064C17.83 30.1024 18.0396 30.1004 18.2493 30.1004C18.5275 30.1004 18.8055 30.104 19.083 30.1108C21.4367 30.169 23.7558 30.4656 25.8676 30.8581L26.7782 31.0273L26.7791 31.0359C29.838 31.6595 32.4099 32.4577 33.9396 32.9801C34.2559 27.6139 33.8969 10.7421 18.2493 2.53262ZM26.8946 33.6147C29.7376 34.23 32.0984 34.9841 33.4366 35.4512C34.7347 35.9042 36.2964 35.1054 36.408 33.5445C36.766 28.5408 36.9196 9.40677 19.2777 0.249316C18.6372 -0.0831047 17.8614 -0.083105 17.221 0.249313C-0.420994 9.40677 -0.267348 28.5408 0.0906159 33.5445C0.202285 35.1055 1.76393 35.9042 3.06206 35.4512C4.61598 34.9088 7.54857 33.9795 11.0139 33.3297C11.2648 37.5032 14.7289 40.8103 18.9654 40.8103C23.105 40.8103 26.5071 37.6527 26.8946 33.6147ZM18.7078 32.6038C18.5549 32.6016 18.4021 32.6004 18.2493 32.6004C18.0044 32.6004 17.7593 32.6034 17.5144 32.6092C16.1629 32.641 14.8122 32.7581 13.5 32.9313C13.5465 35.91 15.9757 38.3103 18.9654 38.3103C21.884 38.3103 24.2683 36.0228 24.4234 33.1429C22.5905 32.8413 20.648 32.6327 18.7078 32.6038Z" fill="black"/>
</svg>
