<svg width="43" height="43" viewBox="0 0 43 43" fill="none" xmlns="http://www.w3.org/2000/svg">
<path fill-rule="evenodd" clip-rule="evenodd" d="M21.2793 4.12939C15.9212 4.12939 11.5776 8.473 11.5776 13.8311C11.5776 14.2039 11.5986 14.5717 11.6396 14.9335L12.2077 16.7424C13.4357 20.6519 17.0717 23.492 21.3726 23.5324C26.6877 23.4824 30.9811 19.1581 30.9811 13.8311C30.9811 8.473 26.6374 4.12939 21.2793 4.12939ZM34.2229 16.4421C34.3922 15.5981 34.4811 14.725 34.4811 13.8311C34.4811 6.54001 28.5704 0.629395 21.2793 0.629395C13.9882 0.629395 8.07761 6.54001 8.07761 13.8311C8.07761 14.8144 8.18511 15.7726 8.38901 16.6946C3.65924 20.5118 0.629333 26.3607 0.629333 32.9174C0.629333 35.8775 1.24766 38.6978 2.36386 41.2525L2.82234 42.3019H40.1087L40.5672 41.2525C41.6834 38.6978 42.3017 35.8775 42.3017 32.9174C42.3017 26.2143 39.1351 20.2511 34.2229 16.4421ZM9.70279 20.182C11.9477 24.2655 16.2904 27.0328 21.2793 27.0328C21.3104 27.0328 21.3415 27.0327 21.3726 27.0325C21.4035 27.0327 21.4345 27.0328 21.4656 27.0328C26.5027 27.0328 30.8778 24.2127 33.1036 20.0679C36.6057 23.2416 38.8017 27.8231 38.8017 32.9174C38.8017 34.9857 38.4403 36.9664 37.778 38.8019H5.15306C4.49081 36.9664 4.12933 34.9857 4.12933 32.9174C4.12933 27.8839 6.2733 23.351 9.70279 20.182Z" fill="#232323" stroke="black"/>
</svg>
