<svg width="48" height="48" viewBox="0 0 48 48" fill="none" xmlns="http://www.w3.org/2000/svg">
<mask id="path-1-inside-1_15_1924" fill="white">
<path fill-rule="evenodd" clip-rule="evenodd" d="M20.2542 6C19.1497 6 18.2542 6.89543 18.2542 8V10.6819C16.9941 11.192 15.8219 11.874 14.7668 12.6988L12.4412 11.3562C11.4846 10.8039 10.2614 11.1316 9.70914 12.0882L6.26828 18.048C5.716 19.0045 6.04375 20.2277 7.00033 20.78L9.32482 22.1221C9.2334 22.7803 9.18614 23.4527 9.18614 24.1362C9.18614 24.8196 9.2334 25.492 9.32482 26.1503L7.00033 27.4923C6.04375 28.0446 5.716 29.2678 6.26828 30.2244L9.70914 36.1841C10.2614 37.1407 11.4846 37.4685 12.4412 36.9162L14.7667 35.5735C15.8219 36.3984 16.9941 37.0804 18.2542 37.5905V40.2724C18.2542 41.3769 19.1497 42.2724 20.2542 42.2724H27.136C28.2405 42.2724 29.136 41.3769 29.136 40.2724V37.5905C30.3961 37.0804 31.5683 36.3984 32.6235 35.5735L34.949 36.9162C35.9056 37.4685 37.1288 37.1407 37.6811 36.1841L41.1219 30.2244C41.6742 29.2678 41.3465 28.0446 40.3899 27.4924L38.0654 26.1503C38.1568 25.492 38.204 24.8196 38.204 24.1362C38.204 23.4527 38.1568 22.7803 38.0654 22.1221L40.3899 20.78C41.3465 20.2277 41.6742 19.0045 41.1219 18.0479L37.6811 12.0882C37.1288 11.1316 35.9056 10.8039 34.949 11.3562L32.6234 12.6988C31.5683 11.874 30.3961 11.192 29.136 10.6819V8C29.136 6.89543 28.2405 6 27.136 6H20.2542Z"/>
</mask>
<path d="M18.2542 10.6819L19.1923 12.9992L20.7542 12.367V10.6819H18.2542ZM14.7668 12.6988L13.5168 14.8639L14.9775 15.7073L16.3065 14.6684L14.7668 12.6988ZM12.4412 11.3562L13.6912 9.1911L12.4412 11.3562ZM9.70914 12.0882L7.54408 10.8382L9.70914 12.0882ZM6.26828 18.048L4.10322 16.798L4.10322 16.798L6.26828 18.048ZM7.00033 20.78L5.75033 22.9451L5.75033 22.9451L7.00033 20.78ZM9.32482 22.1221L11.8011 22.4659L12.0326 20.7986L10.5748 19.957L9.32482 22.1221ZM9.32482 26.1503L10.5748 28.3154L12.0326 27.4737L11.8011 25.8064L9.32482 26.1503ZM7.00033 27.4923L8.25033 29.6574L8.25034 29.6574L7.00033 27.4923ZM6.26828 30.2244L8.43335 28.9744L8.43335 28.9744L6.26828 30.2244ZM9.70914 36.1841L11.8742 34.9341L9.70914 36.1841ZM12.4412 36.9162L13.6912 39.0812L13.6912 39.0812L12.4412 36.9162ZM14.7667 35.5735L16.3064 33.6039L14.9775 32.5651L13.5167 33.4085L14.7667 35.5735ZM18.2542 37.5905H20.7542V35.9054L19.1923 35.2731L18.2542 37.5905ZM29.136 37.5905L28.1979 35.2731L26.636 35.9054V37.5905H29.136ZM32.6235 35.5735L33.8735 33.4085L32.4127 32.5651L31.0838 33.6039L32.6235 35.5735ZM34.949 36.9162L33.699 39.0813L33.699 39.0813L34.949 36.9162ZM37.6811 36.1841L39.8461 37.4341L39.8461 37.4341L37.6811 36.1841ZM41.1219 30.2244L38.9569 28.9744L38.9569 28.9744L41.1219 30.2244ZM40.3899 27.4924L39.1399 29.6574L39.1399 29.6574L40.3899 27.4924ZM38.0654 26.1503L35.5891 25.8064L35.3576 27.4737L36.8154 28.3154L38.0654 26.1503ZM38.0654 22.1221L36.8154 19.957L35.3576 20.7986L35.5891 22.4659L38.0654 22.1221ZM40.3899 20.78L41.6399 22.9451L41.6399 22.9451L40.3899 20.78ZM41.1219 18.0479L43.287 16.7979L43.287 16.7979L41.1219 18.0479ZM37.6811 12.0882L35.516 13.3382L35.516 13.3382L37.6811 12.0882ZM34.949 11.3562L36.199 13.5212L36.199 13.5212L34.949 11.3562ZM32.6234 12.6988L31.0837 14.6684L32.4126 15.7073L33.8734 14.8639L32.6234 12.6988ZM29.136 10.6819H26.636V12.367L28.1979 12.9992L29.136 10.6819ZM20.7542 8C20.7542 8.27614 20.5304 8.5 20.2542 8.5V3.5C17.769 3.5 15.7542 5.51472 15.7542 8H20.7542ZM20.7542 10.6819V8H15.7542V10.6819H20.7542ZM16.3065 14.6684C17.1807 13.985 18.1508 13.4208 19.1923 12.9992L17.3162 8.36454C15.8374 8.96316 14.4631 9.76297 13.227 10.7292L16.3065 14.6684ZM11.1912 13.5212L13.5168 14.8639L16.0168 10.5338L13.6912 9.1911L11.1912 13.5212ZM11.8742 13.3382C11.7361 13.5774 11.4303 13.6593 11.1912 13.5212L13.6912 9.1911C11.5389 7.94846 8.78672 8.6859 7.54408 10.8382L11.8742 13.3382ZM8.43335 19.298L11.8742 13.3382L7.54408 10.8382L4.10322 16.798L8.43335 19.298ZM8.25034 18.6149C8.48948 18.753 8.57142 19.0588 8.43335 19.298L4.10322 16.798C2.86058 18.9503 3.59802 21.7024 5.75033 22.9451L8.25034 18.6149ZM10.5748 19.957L8.25033 18.6149L5.75033 22.9451L8.07482 24.2871L10.5748 19.957ZM11.6861 24.1362C11.6861 23.5681 11.7254 23.0106 11.8011 22.4659L6.84859 21.7782C6.74139 22.5501 6.68614 23.3374 6.68614 24.1362H11.6861ZM11.8011 25.8064C11.7254 25.2618 11.6861 24.7043 11.6861 24.1362H6.68614C6.68614 24.935 6.74138 25.7223 6.84858 26.4942L11.8011 25.8064ZM8.25034 29.6574L10.5748 28.3154L8.07482 23.9852L5.75033 25.3273L8.25034 29.6574ZM8.43335 28.9744C8.57142 29.2135 8.48948 29.5193 8.25033 29.6574L5.75034 25.3273C3.59802 26.5699 2.86058 29.3221 4.10322 31.4744L8.43335 28.9744ZM11.8742 34.9341L8.43335 28.9744L4.10322 31.4744L7.54408 37.4341L11.8742 34.9341ZM11.1912 34.7511C11.4303 34.6131 11.7361 34.695 11.8742 34.9341L7.54408 37.4341C8.78672 39.5865 11.5389 40.3239 13.6912 39.0812L11.1912 34.7511ZM13.5167 33.4085L11.1912 34.7511L13.6912 39.0812L16.0167 37.7386L13.5167 33.4085ZM19.1923 35.2731C18.1508 34.8516 17.1807 34.2874 16.3064 33.6039L13.227 37.5431C14.4631 38.5094 15.8374 39.3092 17.3162 39.9078L19.1923 35.2731ZM20.7542 40.2724V37.5905H15.7542V40.2724H20.7542ZM20.2542 39.7724C20.5304 39.7724 20.7542 39.9962 20.7542 40.2724H15.7542C15.7542 42.7577 17.769 44.7724 20.2542 44.7724V39.7724ZM27.136 39.7724H20.2542V44.7724H27.136V39.7724ZM26.636 40.2724C26.636 39.9962 26.8598 39.7724 27.136 39.7724V44.7724C29.6212 44.7724 31.636 42.7577 31.636 40.2724H26.636ZM26.636 37.5905V40.2724H31.636V37.5905H26.636ZM31.0838 33.6039C30.2095 34.2873 29.2394 34.8516 28.1979 35.2731L30.074 39.9078C31.5528 39.3092 32.9271 38.5094 34.1632 37.5431L31.0838 33.6039ZM36.199 34.7511L33.8735 33.4085L31.3735 37.7386L33.699 39.0813L36.199 34.7511ZM35.516 34.9341C35.6541 34.695 35.9599 34.6131 36.199 34.7511L33.699 39.0813C35.8513 40.3239 38.6035 39.5865 39.8461 37.4341L35.516 34.9341ZM38.9569 28.9744L35.516 34.9341L39.8461 37.4341L43.287 31.4744L38.9569 28.9744ZM39.1399 29.6574C38.9007 29.5193 38.8188 29.2135 38.9569 28.9744L43.287 31.4744C44.5296 29.3221 43.7922 26.5699 41.6399 25.3273L39.1399 29.6574ZM36.8154 28.3154L39.1399 29.6574L41.6399 25.3273L39.3154 23.9852L36.8154 28.3154ZM35.704 24.1362C35.704 24.7043 35.6648 25.2617 35.5891 25.8064L40.5416 26.4942C40.6488 25.7223 40.704 24.935 40.704 24.1362H35.704ZM35.5891 22.4659C35.6648 23.0106 35.704 23.5681 35.704 24.1362H40.704C40.704 23.3374 40.6488 22.5501 40.5416 21.7782L35.5891 22.4659ZM39.1399 18.6149L36.8154 19.957L39.3154 24.2871L41.6399 22.9451L39.1399 18.6149ZM38.9569 19.2979C38.8188 19.0588 38.9007 18.753 39.1399 18.6149L41.6399 22.9451C43.7922 21.7024 44.5296 18.9503 43.287 16.7979L38.9569 19.2979ZM35.516 13.3382L38.9569 19.2979L43.287 16.7979L39.8461 10.8382L35.516 13.3382ZM36.199 13.5212C35.9599 13.6593 35.6541 13.5774 35.516 13.3382L39.8461 10.8382C38.6035 8.68589 35.8513 7.94846 33.699 9.19109L36.199 13.5212ZM33.8734 14.8639L36.199 13.5212L33.699 9.19109L31.3734 10.5338L33.8734 14.8639ZM28.1979 12.9992C29.2394 13.4208 30.2095 13.985 31.0837 14.6684L34.1631 10.7292C32.9271 9.76298 31.5528 8.96316 30.074 8.36455L28.1979 12.9992ZM26.636 8V10.6819H31.636V8H26.636ZM27.136 8.5C26.8598 8.5 26.636 8.27614 26.636 8H31.636C31.636 5.51472 29.6212 3.5 27.136 3.5V8.5ZM20.2542 8.5H27.136V3.5H20.2542V8.5Z" fill="black" mask="url(#path-1-inside-1_15_1924)"/>
<circle cx="23.6951" cy="24.1362" r="6.00448" stroke="black" stroke-width="2.5"/>
</svg>
