<svg width="54" height="54" viewBox="0 0 54 54" fill="none" xmlns="http://www.w3.org/2000/svg">
<path d="M38.3929 23.2667L39.396 21.8328L37.439 20.4638L36.7233 22.7423L38.3929 23.2667ZM16.5381 23.2667L18.2077 22.7423L17.492 20.4638L15.535 21.8327L16.5381 23.2667ZM9.96745 46.5517L8.36383 47.2524L8.82231 48.3017H9.96745V46.5517ZM44.9636 46.5517V48.3017H46.1087L46.5672 47.2524L44.9636 46.5517ZM36.7233 22.7423C35.4865 26.6799 31.8069 29.5327 27.4655 29.5327V33.0327C33.3793 33.0327 38.3807 29.1455 40.0625 23.7912L36.7233 22.7423ZM27.4655 29.5327C23.1241 29.5327 19.4445 26.6799 18.2077 22.7423L14.8686 23.7911C16.5504 29.1455 21.5517 33.0327 27.4655 33.0327V29.5327ZM15.535 21.8327C10.1542 25.5967 6.6293 31.8452 6.6293 38.9172H10.1293C10.1293 33.0358 13.0564 27.8379 17.5412 24.7007L15.535 21.8327ZM6.6293 38.9172C6.6293 41.8774 7.24763 44.6977 8.36383 47.2524L11.5711 45.8511C10.6443 43.73 10.1293 41.386 10.1293 38.9172H6.6293ZM9.96745 48.3017H44.9636V44.8017H9.96745V48.3017ZM46.5672 47.2524C47.6834 44.6977 48.3017 41.8774 48.3017 38.9172H44.8017C44.8017 41.386 44.2867 43.73 43.36 45.8511L46.5672 47.2524ZM48.3017 38.9172C48.3017 31.8452 44.7768 25.5967 39.396 21.8328L37.3898 24.7007C41.8746 27.8379 44.8017 33.0359 44.8017 38.9172H48.3017Z" fill="#232323"/>
<circle cx="27.2793" cy="19.831" r="11.4517" stroke="#232323" stroke-width="3.5"/>
</svg>
