<svg width="256" height="97" viewBox="0 0 256 97" fill="none" xmlns="http://www.w3.org/2000/svg">
<rect x="23" y="42" width="200" height="55" rx="2" fill="#E3AB77" fill-opacity="0.85"/>
<path d="M54.024 83V59.192L55.784 59.224C56.3067 59.224 56.84 59.208 57.384 59.176C57.928 59.1333 58.5147 59.096 59.144 59.064C59.7733 59.0213 60.4773 59 61.256 59C63.08 59 64.5787 59.2347 65.752 59.704C66.9253 60.1733 67.7947 60.8347 68.36 61.688C68.9253 62.5307 69.208 63.5227 69.208 64.664C69.208 65.4107 69.08 66.168 68.824 66.936C68.5787 67.704 68.1893 68.3813 67.656 68.968C67.1227 69.544 66.4347 69.944 65.592 70.168C66.5627 70.2213 67.432 70.52 68.2 71.064C68.9787 71.5973 69.5973 72.2853 70.056 73.128C70.5147 73.96 70.744 74.8667 70.744 75.848C70.744 77.288 70.456 78.5627 69.88 79.672C69.304 80.7813 68.3173 81.6507 66.92 82.28C65.5227 82.9093 63.5867 83.224 61.112 83.224C60.184 83.224 59.224 83.192 58.232 83.128C57.24 83.0747 56.456 83.032 55.88 83H54.024ZM57.736 69.384C58.024 69.4267 58.344 69.4587 58.696 69.48C59.048 69.4907 59.4107 69.496 59.784 69.496C60.1573 69.4853 60.5147 69.48 60.856 69.48C61.208 69.4693 61.528 69.464 61.816 69.464C62.904 69.464 63.8 69.112 64.504 68.408C65.2187 67.704 65.576 66.6267 65.576 65.176C65.576 63.9707 65.1493 63.08 64.296 62.504C63.4427 61.928 62.2213 61.64 60.632 61.64C60.44 61.64 60.136 61.6507 59.72 61.672C59.3147 61.6827 58.92 61.704 58.536 61.736C58.152 61.768 57.8853 61.8107 57.736 61.864V69.384ZM57.736 80.168C57.9173 80.2747 58.232 80.3547 58.68 80.408C59.128 80.4613 59.608 80.4987 60.12 80.52C60.6427 80.5307 61.0907 80.536 61.464 80.536C63.1813 80.536 64.5253 80.2213 65.496 79.592C66.4667 78.9627 66.952 77.8427 66.952 76.232C66.952 74.792 66.5147 73.7467 65.64 73.096C64.776 72.4347 63.4267 72.104 61.592 72.104C61.2933 72.104 60.9627 72.104 60.6 72.104C60.248 72.0933 59.8907 72.0933 59.528 72.104C59.176 72.104 58.8453 72.1093 58.536 72.12C58.2267 72.1307 57.96 72.152 57.736 72.184V80.168ZM81.4203 83.256C79.9696 83.256 78.7376 83 77.7243 82.488C76.7109 81.976 75.8896 81.2773 75.2603 80.392C74.6309 79.5067 74.1723 78.4933 73.8843 77.352C73.6069 76.2 73.4736 74.9893 73.4843 73.72C73.5163 71.8107 73.8949 70.2053 74.6203 68.904C75.3456 67.6027 76.3269 66.6213 77.5643 65.96C78.8016 65.288 80.1936 64.952 81.7403 64.952C83.6816 64.952 85.2336 65.3947 86.3963 66.28C87.5696 67.1547 88.4123 68.3173 88.9243 69.768C89.4469 71.208 89.6976 72.7707 89.6763 74.456C89.6443 76.3653 89.2656 77.976 88.5403 79.288C87.8256 80.5893 86.8496 81.576 85.6123 82.248C84.3856 82.92 82.9883 83.256 81.4203 83.256ZM81.5163 80.648C82.9776 80.6693 84.0763 80.12 84.8123 79C85.5589 77.8693 85.9323 76.3067 85.9323 74.312C85.9323 73.0747 85.7829 71.9547 85.4843 70.952C85.1856 69.9387 84.7163 69.128 84.0763 68.52C83.4469 67.912 82.6363 67.6027 81.6443 67.592C80.1936 67.56 79.1003 68.0827 78.3643 69.16C77.6283 70.2373 77.2603 71.7733 77.2603 73.768C77.2603 75.0053 77.4096 76.1413 77.7083 77.176C78.0069 78.2107 78.4709 79.0427 79.1003 79.672C79.7296 80.3013 80.5349 80.6267 81.5163 80.648ZM100.104 83.256C98.6533 83.256 97.4213 83 96.408 82.488C95.3947 81.976 94.5733 81.2773 93.944 80.392C93.3147 79.5067 92.856 78.4933 92.568 77.352C92.2907 76.2 92.1573 74.9893 92.168 73.72C92.2 71.8107 92.5787 70.2053 93.304 68.904C94.0293 67.6027 95.0107 66.6213 96.248 65.96C97.4853 65.288 98.8773 64.952 100.424 64.952C102.365 64.952 103.917 65.3947 105.08 66.28C106.253 67.1547 107.096 68.3173 107.608 69.768C108.131 71.208 108.381 72.7707 108.36 74.456C108.328 76.3653 107.949 77.976 107.224 79.288C106.509 80.5893 105.533 81.576 104.296 82.248C103.069 82.92 101.672 83.256 100.104 83.256ZM100.2 80.648C101.661 80.6693 102.76 80.12 103.496 79C104.243 77.8693 104.616 76.3067 104.616 74.312C104.616 73.0747 104.467 71.9547 104.168 70.952C103.869 69.9387 103.4 69.128 102.76 68.52C102.131 67.912 101.32 67.6027 100.328 67.592C98.8773 67.56 97.784 68.0827 97.048 69.16C96.312 70.2373 95.944 71.7733 95.944 73.768C95.944 75.0053 96.0933 76.1413 96.392 77.176C96.6907 78.2107 97.1547 79.0427 97.784 79.672C98.4133 80.3013 99.2187 80.6267 100.2 80.648ZM127.26 65.176L115.612 77.336L115.932 76.472L115.996 79.544V83H112.412V72.408V57.048H115.996V70.616L115.868 74.52L115.004 73.912L122.94 65.176H127.26ZM117.852 74.232L120.348 71.832L128.028 83H123.836L117.852 74.232ZM142.999 83.256C141.548 83.256 140.316 83 139.303 82.488C138.29 81.976 137.468 81.2773 136.839 80.392C136.21 79.5067 135.751 78.4933 135.463 77.352C135.186 76.2 135.052 74.9893 135.063 73.72C135.095 71.8107 135.474 70.2053 136.199 68.904C136.924 67.6027 137.906 66.6213 139.143 65.96C140.38 65.288 141.772 64.952 143.319 64.952C145.26 64.952 146.812 65.3947 147.975 66.28C149.148 67.1547 149.991 68.3173 150.503 69.768C151.026 71.208 151.276 72.7707 151.255 74.456C151.223 76.3653 150.844 77.976 150.119 79.288C149.404 80.5893 148.428 81.576 147.191 82.248C145.964 82.92 144.567 83.256 142.999 83.256ZM143.095 80.648C144.556 80.6693 145.655 80.12 146.391 79C147.138 77.8693 147.511 76.3067 147.511 74.312C147.511 73.0747 147.362 71.9547 147.063 70.952C146.764 69.9387 146.295 69.128 145.655 68.52C145.026 67.912 144.215 67.6027 143.223 67.592C141.772 67.56 140.679 68.0827 139.943 69.16C139.207 70.2373 138.839 71.7733 138.839 73.768C138.839 75.0053 138.988 76.1413 139.287 77.176C139.586 78.2107 140.05 79.0427 140.679 79.672C141.308 80.3013 142.114 80.6267 143.095 80.648ZM155.323 83V65.208H158.635L158.651 67.096C159.089 66.7973 159.638 66.4827 160.299 66.152C160.971 65.8213 161.691 65.5387 162.459 65.304C163.238 65.0693 164.011 64.9413 164.779 64.92C166.689 64.8667 168.059 65.3627 168.891 66.408C169.723 67.4427 170.139 69.2667 170.139 71.88V83H166.427V72.072C166.427 70.5787 166.225 69.5067 165.819 68.856C165.425 68.2053 164.561 67.9173 163.227 67.992C162.854 68.0027 162.422 68.072 161.931 68.2C161.451 68.3173 160.955 68.4933 160.443 68.728C159.942 68.952 159.462 69.24 159.003 69.592V83H155.323ZM182.167 83.256C179.607 83.256 177.633 82.4453 176.247 80.824C174.86 79.2027 174.167 76.952 174.167 74.072C174.167 72.344 174.471 70.7973 175.079 69.432C175.697 68.0667 176.604 66.984 177.799 66.184C179.004 65.384 180.481 64.9733 182.231 64.952C183.127 64.9307 183.969 65.0587 184.759 65.336C185.548 65.6133 186.247 66.0347 186.855 66.6C187.463 67.1547 187.943 67.8587 188.295 68.712C188.657 69.5653 188.855 70.5627 188.887 71.704C188.887 72.376 188.881 72.9787 188.871 73.512C188.86 74.0347 188.812 74.4987 188.727 74.904H176.311L176.631 72.568H185.431C185.484 71.7147 185.431 70.9093 185.271 70.152C185.121 69.384 184.791 68.7653 184.279 68.296C183.777 67.816 183.031 67.576 182.039 67.576C181.207 67.576 180.46 67.8107 179.799 68.28C179.137 68.7387 178.625 69.5173 178.263 70.616C177.9 71.7147 177.751 73.2187 177.815 75.128C177.879 76.472 178.151 77.5333 178.631 78.312C179.111 79.0907 179.74 79.6453 180.519 79.976C181.297 80.3067 182.167 80.472 183.127 80.472C183.532 80.472 184.028 80.4293 184.615 80.344C185.201 80.248 185.767 80.1307 186.311 79.992C186.865 79.8427 187.287 79.6827 187.575 79.512L188.279 81.624C187.884 81.944 187.345 82.2267 186.663 82.472C185.991 82.7173 185.26 82.9093 184.471 83.048C183.681 83.1867 182.913 83.256 182.167 83.256Z" fill="#0B0D23"/>
<path d="M0.104234 13.0765C0.569667 14.6915 14.7654 26.2273 15.929 25.9966C17.0925 25.7659 3.59498 11 2.19868 11C0.802384 11 -0.361199 11.4614 0.104234 13.0765Z" fill="#E3AB77" fill-opacity="0.85"/>
<path d="M7.02682 2.95916C6.84091 4.6296 15.5619 20.7087 16.7255 20.9394C17.8891 21.17 11.0457 2.37152 9.75504 1.83882C8.46435 1.30612 7.21273 1.28873 7.02682 2.95916Z" fill="#E3AB77" fill-opacity="0.85"/>
<path d="M132.546 2.48851C131.678 3.92804 132.875 22.1808 133.835 22.877C134.795 23.5732 136.442 3.63572 135.493 2.612C134.543 1.58828 133.414 1.04898 132.546 2.48851Z" fill="#E3AB77" fill-opacity="0.85"/>
<path d="M148.297 1.58272C147.106 2.76801 143.826 20.7636 144.589 21.6725C145.351 22.5814 151.797 3.64314 151.125 2.41921C150.453 1.19528 149.489 0.397424 148.297 1.58272Z" fill="#E3AB77" fill-opacity="0.85"/>
<path d="M246.901 34.3525C245.231 34.1667 229.153 42.8895 228.922 44.0531C228.692 45.2167 247.489 38.3713 248.022 37.0806C248.554 35.7898 248.572 34.5382 246.901 34.3525Z" fill="#E3AB77" fill-opacity="0.85"/>
<path d="M253.613 44.6107C252.14 43.8018 233.95 45.7308 233.293 46.7185C232.636 47.7061 252.624 48.55 253.608 47.56C254.593 46.5701 255.087 45.4197 253.613 44.6107Z" fill="#E3AB77" fill-opacity="0.85"/>
</svg>
